<svg width="57" height="55" viewBox="0 0 57 55" fill="none" xmlns="http://www.w3.org/2000/svg">
<path d="M31.0793 8.25C30.33 8.25 29.6114 8.53973 29.0815 9.05546C28.5516 9.57118 28.254 10.2707 28.254 11C28.254 11.7293 28.5516 12.4288 29.0815 12.9445C29.6114 13.4603 30.33 13.75 31.0793 13.75H38.3858L20.6056 31.0558C20.3357 31.3094 20.1205 31.6129 19.9724 31.9484C19.8244 32.2839 19.7464 32.6448 19.7431 33.0099C19.7399 33.375 19.8114 33.7372 19.9534 34.0751C20.0955 34.4131 20.3053 34.7201 20.5706 34.9783C20.8359 35.2365 21.1513 35.4407 21.4986 35.579C21.8458 35.7173 22.2178 35.7869 22.593 35.7837C22.9681 35.7805 23.3389 35.7047 23.6836 35.5605C24.0283 35.4164 24.3401 35.2069 24.6007 34.9442L42.3809 17.6385V24.75C42.3809 25.4793 42.6786 26.1788 43.2085 26.6945C43.7383 27.2103 44.457 27.5 45.2063 27.5C45.9557 27.5 46.6743 27.2103 47.2042 26.6945C47.7341 26.1788 48.0317 25.4793 48.0317 24.75V11C48.0317 10.2707 47.7341 9.57118 47.2042 9.05546C46.6743 8.53973 45.9557 8.25 45.2063 8.25H31.0793Z" fill="#6B15D9"/>
<path d="M14.127 13.75C12.6283 13.75 11.191 14.3295 10.1313 15.3609C9.07155 16.3924 8.4762 17.7913 8.4762 19.25V41.25C8.4762 42.7087 9.07155 44.1076 10.1313 45.1391C11.191 46.1705 12.6283 46.75 14.127 46.75H36.7302C38.2288 46.75 39.6661 46.1705 40.7259 45.1391C41.7856 44.1076 42.381 42.7087 42.381 41.25V33C42.381 32.2707 42.0833 31.5712 41.5534 31.0555C41.0236 30.5397 40.3049 30.25 39.5556 30.25C38.8062 30.25 38.0876 30.5397 37.5577 31.0555C37.0278 31.5712 36.7302 32.2707 36.7302 33V41.25H14.127V19.25H22.6032C23.3525 19.25 24.0712 18.9603 24.601 18.4445C25.1309 17.9288 25.4286 17.2293 25.4286 16.5C25.4286 15.7707 25.1309 15.0712 24.601 14.5555C24.0712 14.0397 23.3525 13.75 22.6032 13.75H14.127Z" fill="#6B15D9"/>
</svg>
